<?xml version="1.0" standalone="no"?>
<!DOCTYPE svg PUBLIC "-//W3C//DTD SVG 20010904//EN"
 "http://www.w3.org/TR/2001/REC-SVG-20010904/DTD/svg10.dtd">
<svg version="1.0" xmlns="http://www.w3.org/2000/svg"
 width="100.000000pt" height="100.000000pt" viewBox="0 0 100.000000 100.000000"
 preserveAspectRatio="xMidYMid meet">
<metadata>
Created by potrace 1.14, written by Peter Selinger 2001-2017
</metadata>
<g transform="translate(0.000000,100.000000) scale(0.100000,-0.100000)"
fill="#000000" stroke="none">
<path d="M482 970 c-7 -11 -22 -20 -34 -20 -20 0 -20 -1 -5 -18 10 -10 17 -28
17 -40 0 -19 4 -21 24 -16 13 3 33 1 44 -5 17 -9 19 -7 14 15 -3 15 2 32 13
44 17 19 17 20 -3 20 -12 0 -27 9 -34 20 -7 11 -15 20 -18 20 -3 0 -11 -9 -18
-20z"/>
<path d="M276 913 c-4 -14 -17 -23 -33 -25 -26 -3 -26 -4 -9 -21 11 -11 16
-27 14 -42 -4 -21 -3 -22 19 -14 16 6 31 5 44 -1 17 -9 19 -7 19 16 0 15 7 35
15 44 13 14 12 16 -6 17 -11 1 -28 12 -38 24 l-18 23 -7 -21z"/>
<path d="M695 910 c-3 -11 -15 -20 -26 -20 -20 0 -26 -15 -9 -25 6 -3 10 -19
10 -35 0 -28 1 -29 25 -18 19 9 28 9 37 0 19 -19 25 -14 20 18 -3 21 0 32 12
36 24 9 19 24 -8 24 -16 0 -27 7 -31 20 -3 11 -10 20 -15 20 -5 0 -12 -9 -15
-20z"/>
<path d="M115 750 c-3 -11 -15 -20 -25 -20 -24 0 -34 -16 -15 -24 9 -3 15 -18
15 -36 0 -28 2 -30 20 -20 14 8 26 8 40 0 18 -10 20 -8 20 20 0 16 4 30 9 30
5 0 11 7 15 15 3 8 2 14 -2 14 -25 -4 -41 4 -47 21 -3 11 -10 20 -15 20 -5 0
-12 -9 -15 -20z"/>
<path d="M855 750 c-3 -11 -15 -20 -25 -20 -24 0 -34 -16 -15 -24 9 -3 15 -18
15 -36 0 -28 2 -30 20 -20 14 8 26 8 40 0 18 -10 20 -8 20 20 0 18 6 33 15 36
19 8 9 24 -15 24 -10 0 -22 9 -25 20 -3 11 -10 20 -15 20 -5 0 -12 -9 -15 -20z"/>
<path d="M61 542 c-6 -12 -21 -22 -31 -22 -23 0 -26 -13 -6 -29 8 -6 11 -22 8
-37 -4 -24 -3 -25 17 -15 15 8 27 9 40 1 27 -14 30 -13 24 10 -3 12 2 29 12
40 17 18 16 19 -8 25 -13 4 -29 16 -34 28 l-10 22 -12 -23z"/>
<path d="M916 542 c-6 -19 -23 -27 -48 -23 -14 2 -9 -16 8 -30 10 -8 13 -21
10 -36 -6 -21 -4 -22 20 -12 19 7 31 6 38 -1 18 -18 29 -11 24 15 -3 14 -2 25
2 25 17 0 19 31 2 37 -9 3 -24 15 -33 26 -17 20 -17 20 -23 -1z"/>
<path d="M112 325 c-7 -16 -20 -25 -33 -25 -21 0 -21 -1 -4 -20 11 -12 16 -29
13 -44 -5 -24 -4 -25 23 -11 18 10 30 11 34 5 11 -17 25 -11 25 12 0 12 7 30
17 40 15 17 15 18 -1 18 -9 0 -27 11 -40 25 l-23 25 -11 -25z"/>
<path d="M852 320 c-7 -11 -22 -20 -34 -20 -20 0 -20 -1 -5 -18 10 -10 17 -31
17 -47 0 -23 2 -26 15 -15 8 7 25 10 40 6 21 -5 25 -3 25 16 0 12 7 30 17 40
16 18 13 21 -24 17 -4 0 -10 9 -15 20 -9 26 -20 27 -36 1z"/>
<path d="M276 173 c-4 -12 -19 -24 -34 -28 -26 -6 -26 -7 -8 -20 13 -10 17
-22 14 -40 -6 -27 -1 -30 21 -16 8 6 24 6 38 0 21 -8 23 -6 23 21 0 17 7 33
17 38 14 8 13 11 -8 17 -13 4 -31 16 -40 28 l-17 20 -6 -20z"/>
<path d="M692 165 c-12 -14 -27 -23 -32 -20 -6 3 -10 -1 -10 -9 0 -9 5 -16 10
-16 6 0 10 -14 10 -30 0 -26 3 -30 17 -21 10 5 26 5 40 0 20 -7 23 -5 23 13 0
12 7 29 16 39 15 17 15 18 -9 24 -13 4 -29 15 -33 26 -9 19 -10 19 -32 -6z"/>
<path d="M485 110 c-4 -13 -15 -20 -32 -20 -25 0 -25 -1 -10 -18 10 -10 17
-31 17 -46 0 -24 2 -25 20 -16 14 8 26 8 40 0 18 -9 20 -8 20 16 0 15 7 36 17
46 15 17 15 18 -10 18 -17 0 -28 7 -32 20 -3 11 -10 20 -15 20 -5 0 -12 -9
-15 -20z"/>
</g>
</svg>
