<svg width="163" height="73" viewBox="0 0 163 73" fill="none" xmlns="http://www.w3.org/2000/svg">
<path d="M125.154 1C126.09 1 126.846 1.78203 126.846 2.75V14.125H123.461V2.75C123.461 1.78203 124.218 1 125.154 1ZM130.231 9.75C131.167 9.75 131.923 10.532 131.923 11.5V15C131.923 15.968 131.167 16.75 130.231 16.75C129.295 16.75 128.538 15.968 128.538 15V11.5C128.538 10.532 129.295 9.75 130.231 9.75ZM133.615 13.25C133.615 12.282 134.372 11.5 135.308 11.5C136.244 11.5 137 12.282 137 13.25V16.75C137 17.718 136.244 18.5 135.308 18.5C134.372 18.5 133.615 17.718 133.615 16.75V13.25ZM118.242 3.8L122.61 14.125H118.919L115.143 5.2C114.767 4.31406 115.159 3.28594 116.015 2.89766C116.872 2.50938 117.872 2.91406 118.242 3.8ZM119.67 15.9023L119.659 15.875H123.356H124.731C125.899 15.875 126.846 16.8539 126.846 18.0625C126.846 19.2711 125.899 20.25 124.731 20.25H121.769C121.304 20.25 120.923 20.6437 120.923 21.125C120.923 21.6063 121.304 22 121.769 22H124.731C126.836 22 128.538 20.2391 128.538 18.0625V18.0297C129.036 18.325 129.612 18.5 130.231 18.5C130.929 18.5 131.574 18.2812 132.113 17.9094C132.574 19.2711 133.832 20.25 135.308 20.25C135.926 20.25 136.503 20.0805 137 19.7797V20.25C137 25.0844 133.213 29 128.538 29H125.275C123.033 29 120.881 28.0758 119.294 26.4352L118.681 25.8008C117.406 24.4883 116.692 22.7055 116.692 20.8516V19.375C116.692 17.5867 117.993 16.1102 119.67 15.9023Z" fill="white"/>
<path d="M44.5 38.0001L43.7159 39.5902L41.9623 39.8453L43.2312 41.0831L42.9316 42.831L44.5 42.0059L46.0685 42.8311L45.7689 41.0831L47.0378 39.8453L45.2842 39.5902L44.5 38.0001ZM37.1259 40.197L36.3417 41.7873L34.5881 42.0424L35.8571 43.2802L35.5576 45.0282L37.1259 44.2028L38.6944 45.0282L38.3948 43.2802L39.6637 42.0424L37.9101 41.7873L37.1259 40.197ZM51.8742 40.197L51.0899 41.7873L49.3364 42.0424L50.6053 43.2802L50.3058 45.0282L51.8743 44.2028L53.4425 45.0282L53.143 43.2802L54.4119 42.0424L52.6583 41.7873L51.8742 40.197ZM31.539 45.8239L30.7549 47.4141L29.0013 47.6691L30.2702 48.9069L29.9707 50.6548L31.539 49.8297L33.1075 50.6548L32.8079 48.9069L34.0768 47.6692L32.3232 47.4141L31.539 45.8239ZM57.4611 45.8239L56.6768 47.4141L54.9232 47.6691L56.1921 48.9069L55.8926 50.6548L57.4611 49.8297L59.0293 50.6548L58.7298 48.9069L59.9987 47.6691L58.245 47.414L57.461 45.8238L57.4611 45.8239ZM29.5378 53.2092L28.7536 54.7994L27 55.0544L28.269 56.2922L27.9694 58.0401L29.5378 57.2149L31.1063 58.0401L30.8067 56.2921L32.0755 55.0544L30.3219 54.7994L29.5378 53.2091V53.2092ZM59.4623 53.2092L58.6781 54.7994L56.9245 55.0544L58.1934 56.2922L57.8939 58.0401L59.4624 57.2149L61.0306 58.0401L60.7311 56.2921L62 55.0543L60.2464 54.7993L59.4623 53.2091V53.2092ZM31.539 60.7115L30.7549 62.3017L29.0013 62.5569L30.2702 63.7945L29.9707 65.5425L31.539 64.7172L33.1075 65.5425L32.8079 63.7946L34.0768 62.5569L32.3232 62.3017L31.539 60.7115ZM57.4611 60.7115L56.6768 62.3017L54.9233 62.5569L56.1922 63.7946L55.8926 65.5426L57.4611 64.7172L59.0294 65.5426L58.7299 63.7946L59.9987 62.557L58.2451 62.3018L57.4611 60.7115ZM37.1259 66.1983L36.3417 67.7885L34.5881 68.0436L35.8571 69.2814L35.5576 71.0294L37.1259 70.204L38.6944 71.0294L38.3948 69.2814L39.6637 68.0436L37.9101 67.7885L37.1259 66.1983ZM51.8742 66.1983L51.0899 67.7885L49.3363 68.0436L50.6052 69.2814L50.3057 71.0294L51.8742 70.204L53.4424 71.0294L53.1429 69.2814L54.4118 68.0436L52.6582 67.7885L51.8742 66.1983ZM44.4854 68.169L43.7012 69.7593L41.9476 70.0143L43.2165 71.2522L42.9171 73L42.9492 72.9831L42.9463 73L44.5 72.1824L46.0538 73L46.0509 72.9831L46.083 73L45.7837 71.2522L47.0524 70.0143L45.2988 69.7593L44.5146 68.169L44.5 68.1986L44.4853 68.169H44.4854Z" fill="white"/>
<path d="M14.6094 29H8.55469V5.48438H0.800781V0.445312H22.3633V5.48438H14.6094V29ZM63.8359 0.445312L56.5703 29H49.6758L45.8086 14C45.7305 13.7135 45.6263 13.2773 45.4961 12.6914C45.3659 12.1055 45.2292 11.4674 45.0859 10.7773C44.9427 10.0742 44.8125 9.41667 44.6953 8.80469C44.5911 8.17969 44.5195 7.6849 44.4805 7.32031C44.4414 7.6849 44.3633 8.17318 44.2461 8.78516C44.1419 9.39714 44.0182 10.0482 43.875 10.7383C43.7448 11.4284 43.6146 12.0729 43.4844 12.6719C43.3542 13.2708 43.25 13.7266 43.1719 14.0391L39.3242 29H32.4492L25.1641 0.445312H31.1211L34.7734 16.0312C34.8776 16.5 34.9948 17.0599 35.125 17.7109C35.2682 18.362 35.4049 19.0456 35.5352 19.7617C35.6784 20.4648 35.8021 21.1484 35.9062 21.8125C36.0234 22.4635 36.1081 23.0299 36.1602 23.5117C36.2253 23.0169 36.3099 22.444 36.4141 21.793C36.5182 21.1289 36.6289 20.4583 36.7461 19.7812C36.8763 19.0911 37.0065 18.4531 37.1367 17.8672C37.2669 17.2812 37.3841 16.806 37.4883 16.4414L41.6484 0.445312H47.3711L51.5312 16.4414C51.6224 16.793 51.7266 17.2682 51.8438 17.8672C51.974 18.4531 52.1042 19.0911 52.2344 19.7812C52.3646 20.4714 52.4818 21.1484 52.5859 21.8125C52.7031 22.4635 52.7878 23.0299 52.8398 23.5117C52.931 22.8607 53.0547 22.0729 53.2109 21.1484C53.3802 20.2109 53.556 19.2799 53.7383 18.3555C53.9336 17.431 54.1029 16.6562 54.2461 16.0312L57.8789 0.445312H63.8359ZM85.875 29H69.4297V0.445312H85.875V5.40625H75.4844V11.6758H85.1523V16.6367H75.4844V24H85.875V29ZM93.8516 29V0.445312H99.9062V24H111.488V29H93.8516ZM159.695 29H143.25V0.445312H159.695V5.40625H149.305V11.6758H158.973V16.6367H149.305V24H159.695V29ZM12.7148 40.4453C16.3997 40.4453 19.0885 41.2396 20.7812 42.8281C22.474 44.4036 23.3203 46.5781 23.3203 49.3516C23.3203 50.6016 23.1315 51.7995 22.7539 52.9453C22.3763 54.0781 21.7578 55.0872 20.8984 55.9727C20.0521 56.8581 18.9193 57.5612 17.5 58.082C16.0807 58.5898 14.3294 58.8438 12.2461 58.8438H9.64844V69H3.59375V40.4453H12.7148ZM12.4023 45.4062H9.64844V53.8828H11.6406C12.7734 53.8828 13.7565 53.7331 14.5898 53.4336C15.4232 53.1341 16.0677 52.6654 16.5234 52.0273C16.9792 51.3893 17.207 50.569 17.207 49.5664C17.207 48.1602 16.8164 47.1185 16.0352 46.4414C15.2539 45.7513 14.043 45.4062 12.4023 45.4062ZM67.8828 69V40.4453H73.9375V69H67.8828ZM108.457 69H100.762L88.3398 47.3984H88.1641C88.2161 48.2969 88.2617 49.2018 88.3008 50.1133C88.3398 51.0247 88.3789 51.9362 88.418 52.8477C88.457 53.7461 88.4961 54.651 88.5352 55.5625V69H83.125V40.4453H90.7617L103.164 61.832H103.301C103.275 60.9466 103.242 60.0677 103.203 59.1953C103.164 58.3229 103.125 57.4505 103.086 56.5781C103.06 55.7057 103.034 54.8333 103.008 53.9609V40.4453H108.457V69ZM128.68 69H122.625V45.4844H114.871V40.4453H136.434V45.4844H128.68V69ZM159.684 61.0703C159.684 62.763 159.273 64.2344 158.453 65.4844C157.633 66.7344 156.435 67.6979 154.859 68.375C153.297 69.0521 151.396 69.3906 149.156 69.3906C148.167 69.3906 147.197 69.3255 146.246 69.1953C145.309 69.0651 144.404 68.8763 143.531 68.6289C142.672 68.3685 141.852 68.0495 141.07 67.6719V62.0469C142.424 62.6458 143.831 63.1862 145.289 63.668C146.747 64.1497 148.193 64.3906 149.625 64.3906C150.615 64.3906 151.409 64.2604 152.008 64C152.62 63.7396 153.062 63.3815 153.336 62.9258C153.609 62.4701 153.746 61.9492 153.746 61.3633C153.746 60.6471 153.505 60.0352 153.023 59.5273C152.542 59.0195 151.878 58.5443 151.031 58.1016C150.198 57.6589 149.254 57.1836 148.199 56.6758C147.535 56.3633 146.812 55.9857 146.031 55.543C145.25 55.0872 144.508 54.5339 143.805 53.8828C143.102 53.2318 142.522 52.444 142.066 51.5195C141.624 50.582 141.402 49.4622 141.402 48.1602C141.402 46.4544 141.793 44.9961 142.574 43.7852C143.355 42.5742 144.469 41.6497 145.914 41.0117C147.372 40.3607 149.091 40.0352 151.07 40.0352C152.555 40.0352 153.967 40.2109 155.309 40.5625C156.663 40.901 158.076 41.3958 159.547 42.0469L157.594 46.7539C156.279 46.2201 155.1 45.8099 154.059 45.5234C153.017 45.224 151.956 45.0742 150.875 45.0742C150.12 45.0742 149.475 45.1979 148.941 45.4453C148.408 45.6797 148.004 46.0182 147.73 46.4609C147.457 46.8906 147.32 47.3919 147.32 47.9648C147.32 48.6419 147.516 49.2148 147.906 49.6836C148.31 50.1393 148.909 50.582 149.703 51.0117C150.51 51.4414 151.513 51.9427 152.711 52.5156C154.169 53.2057 155.413 53.9284 156.441 54.6836C157.483 55.4258 158.284 56.3047 158.844 57.3203C159.404 58.3229 159.684 59.5729 159.684 61.0703Z" fill="white"/>
</svg>
